<?xml version="1.0" encoding="UTF-8"?>
<!-- Generator: visioncortex VTracer 0.6.5 -->
<svg version="1.1" xmlns="http://www.w3.org/2000/svg" width="729" height="805">
<path d="M0 0 C-1.63 4.18 -4.7 6.94 -7.85 10.01 C-8.13 10.29 -8.13 10.29 -9.58 11.73 C-11.4 13.53 -13.23 15.33 -15.06 17.12 C-16.9 18.93 -18.73 20.74 -20.56 22.55 C-21.69 23.67 -22.83 24.79 -23.97 25.91 C-27.89 29.78 -27.89 29.78 -29 32 C-29.66 32 -30.32 32 -31 32 C-31.13 32.3 -31.13 32.3 -31.78 33.79 C-33.09 36.17 -34.44 37.57 -36.45 39.39 C-37.13 40.02 -37.82 40.65 -38.52 41.29 C-38.88 41.62 -38.88 41.62 -40.69 43.25 C-42.09 44.52 -43.49 45.8 -44.89 47.08 C-45.2 47.36 -45.2 47.36 -46.77 48.78 C-48.62 50.62 -50.29 52.49 -51.98 54.47 C-56.59 59.76 -61.55 64.69 -66.52 69.63 C-67.58 70.69 -68.64 71.75 -69.69 72.81 C-72.58 75.7 -75.47 78.58 -78.37 81.47 C-81.49 84.59 -84.62 87.71 -87.74 90.83 C-93.15 96.24 -98.56 101.64 -103.97 107.04 C-111.8 114.86 -119.62 122.68 -127.45 130.5 C-140.15 143.2 -152.86 155.9 -165.57 168.59 C-166.33 169.35 -167.09 170.11 -167.88 170.89 C-173.27 176.28 -178.67 181.67 -184.06 187.06 C-190.23 193.22 -196.39 199.38 -202.56 205.54 C-203.32 206.29 -204.08 207.05 -204.86 207.84 C-217.52 220.49 -230.19 233.14 -242.85 245.79 C-250.65 253.6 -258.46 261.39 -266.27 269.19 C-271.62 274.53 -276.97 279.88 -282.32 285.22 C-285.4 288.3 -288.48 291.39 -291.57 294.47 C-294.4 297.29 -297.22 300.11 -300.05 302.93 C-301.07 303.95 -302.09 304.97 -303.11 305.99 C-308.3 311.16 -313.3 316.38 -318 322 C-319.22 323.14 -320.46 324.25 -321.75 325.31 C-325 328.06 -327.93 330.98 -330.88 334.06 C-341.36 344.61 -354.68 350.04 -369.5 350.31 C-383.17 350.34 -395.25 345.63 -405.25 336.25 C-415.1 325.78 -420.43 312.1 -420.21 297.77 C-418.94 281.13 -409.76 266.32 -397.31 255.53 C-396.73 255.06 -396.15 254.58 -395.56 254.09 C-393.07 252.01 -390.94 249.87 -388.85 247.39 C-384.71 242.6 -380.29 238.12 -375.83 233.63 C-374.93 232.72 -374.02 231.81 -373.1 230.87 C-370.61 228.37 -368.12 225.86 -365.64 223.36 C-363.5 221.21 -361.36 219.05 -359.22 216.9 C-339 196.5 -318.73 176.14 -298.45 155.79 C-295.81 153.15 -293.18 150.51 -290.54 147.87 C-289.89 147.21 -289.24 146.55 -288.56 145.87 C-277.94 135.21 -267.33 124.53 -256.74 113.83 C-245.85 102.85 -234.94 91.89 -224.02 80.94 C-217.89 74.8 -211.76 68.65 -205.67 62.47 C-200.48 57.22 -195.27 51.98 -190.04 46.77 C-187.37 44.11 -184.71 41.45 -182.08 38.75 C-179.22 35.84 -176.33 32.97 -173.43 30.1 C-172.6 29.24 -171.77 28.38 -170.91 27.49 C-165.3 22.04 -165.3 22.04 -161.52 21.92 C-159.2 22.42 -157.18 23.09 -155 24 C-154.04 24.28 -153.08 24.56 -152.09 24.85 C-151.24 25.11 -150.38 25.36 -149.5 25.62 C-115.33 34.04 -73.93 17.89 -41.23 9.03 C-7.76 0 -7.76 0 0 0 Z " fill="#E89952" transform="translate(520,364)"/>
<path d="M0 0 C6.34 4.43 11.79 9.36 17.21 14.86 C18.11 15.76 19.01 16.66 19.94 17.58 C22.38 20.03 24.82 22.48 27.25 24.93 C29.81 27.51 32.37 30.08 34.94 32.65 C39.79 37.51 44.64 42.38 49.48 47.25 C54.97 52.78 60.48 58.3 65.98 63.82 C75.4 73.26 84.81 82.71 94.21 92.16 C104.89 102.9 104.89 102.9 109.3 107.23 C113.09 110.94 116.85 114.66 120.62 118.39 C122.24 119.99 123.86 121.58 125.49 123.17 C127.85 125.49 130.2 127.82 132.55 130.15 C133.27 130.85 133.99 131.54 134.73 132.26 C143.84 141.37 149.62 151.56 150.06 164.54 C149.84 174.06 146.63 182.52 139.87 189.38 C131.96 196.69 123.53 200.51 112.67 200.64 C106.55 200.32 101.52 199.14 95.97 196.54 C93.01 195.36 90.83 194.73 87.62 194.6 C85.29 196.23 83.62 197.67 81.68 199.68 C81.4 199.96 81.4 199.96 79.96 201.37 C78.04 203.27 76.16 205.19 74.26 207.11 C72.89 208.48 71.51 209.85 70.13 211.22 C66.33 215 62.56 218.8 58.79 222.61 C54.72 226.7 50.63 230.78 46.55 234.86 C38.54 242.85 30.56 250.87 22.58 258.89 C13.28 268.23 3.97 277.55 -5.34 286.87 C-21.96 303.49 -38.56 320.14 -55.15 336.79 C-71.25 352.95 -87.36 369.1 -103.48 385.25 C-103.98 385.74 -104.48 386.24 -104.99 386.75 C-109.48 391.25 -113.96 395.74 -118.45 400.24 C-136.59 418.39 -154.72 436.56 -172.85 454.73 C-173.77 455.65 -174.69 456.57 -175.64 457.52 C-187.15 469.06 -198.66 480.6 -210.16 492.14 C-213.37 495.36 -216.58 498.58 -219.78 501.79 C-223.48 505.5 -227.17 509.2 -230.86 512.91 C-232.2 514.25 -233.53 515.59 -234.87 516.93 C-247 529.08 -247 529.08 -252.05 535.07 C-254.15 537.49 -256.53 539.56 -258.94 541.67 C-263.68 545.9 -268.08 550.37 -272.38 555.04 C-280.95 564.35 -289.65 573.49 -299.38 581.6 C-300.23 582.33 -301.09 583.06 -301.96 583.82 C-324.23 602.56 -349.68 608.7 -378.38 606.6 C-402.97 603.86 -424.85 590.56 -440.63 571.79 C-456.87 550.45 -464.23 523.95 -460.69 497.29 C-455.15 465.82 -437.39 446.12 -415.21 424.17 C-412.59 421.56 -409.97 418.95 -407.35 416.34 C-402.41 411.41 -397.46 406.49 -392.5 401.57 C-383.62 392.74 -374.74 383.9 -365.87 375.06 C-362.76 371.97 -359.65 368.88 -356.54 365.79 C-355.07 364.33 -353.6 362.87 -352.14 361.41 C-350.36 359.64 -348.57 357.87 -346.79 356.1 C-343.08 352.41 -339.6 348.74 -336.38 344.6 C-335.27 343.57 -334.12 342.57 -332.95 341.6 C-326.74 336.29 -321.07 330.42 -315.31 324.63 C-314.05 323.37 -312.8 322.12 -311.54 320.86 C-308.26 317.57 -304.98 314.28 -301.7 310.99 C-298.37 307.65 -295.03 304.31 -291.69 300.96 C-286.3 295.57 -280.92 290.17 -275.53 284.77 C-273.4 282.62 -271.26 280.48 -269.09 278.37 C-266.83 276.06 -264.69 273.71 -262.56 271.29 C-255.85 263.8 -248.68 256.78 -241.57 249.69 C-239.98 248.11 -238.39 246.52 -236.8 244.93 C-233.4 241.53 -229.99 238.13 -226.58 234.73 C-221.19 229.35 -215.8 223.97 -210.42 218.59 C-202.87 211.05 -195.32 203.51 -187.76 195.97 C-187.52 195.73 -187.52 195.73 -186.31 194.52 C-182.92 191.13 -179.53 187.74 -176.13 184.35 C-172.25 180.48 -168.36 176.6 -164.48 172.72 C-164 172.24 -163.52 171.77 -163.03 171.27 C-155.04 163.3 -147.05 155.32 -139.07 147.35 C-133.72 142 -128.36 136.65 -123 131.31 C-119.67 127.99 -116.35 124.66 -113.02 121.34 C-111.48 119.8 -109.93 118.26 -108.39 116.72 C-106.28 114.62 -104.18 112.51 -102.07 110.41 C-101.77 110.11 -101.77 110.11 -100.22 108.57 C-97.53 105.87 -94.98 103.16 -92.59 100.18 C-91.86 99.33 -91.13 98.48 -90.38 97.6 C-89.72 97.6 -89.06 97.6 -88.38 97.6 C-88.38 96.94 -88.38 96.28 -88.38 95.6 C-87.72 95.6 -87.06 95.6 -86.38 95.6 C-86.38 94.94 -86.38 94.28 -86.38 93.6 C-85.72 93.6 -85.06 93.6 -84.38 93.6 C-84.38 92.94 -84.38 92.28 -84.38 91.6 C-83.72 91.6 -83.06 91.6 -82.38 91.6 C-82.38 90.94 -82.38 90.28 -82.38 89.6 C-81.72 89.6 -81.06 89.6 -80.38 89.6 C-80.38 88.94 -80.38 88.28 -80.38 87.6 C-79.72 87.6 -79.06 87.6 -78.38 87.6 C-78.38 86.94 -78.38 86.28 -78.38 85.6 C-77.72 85.6 -77.06 85.6 -76.38 85.6 C-76.38 84.94 -76.38 84.28 -76.38 83.6 C-74.73 82.25 -73.06 80.92 -71.38 79.6 C-71.05 78.94 -70.72 78.28 -70.38 77.6 C-69.72 77.6 -69.06 77.6 -68.38 77.6 C-68.26 77.32 -68.26 77.32 -67.63 75.87 C-66.19 73.25 -64.5 71.46 -62.38 69.35 C-61.68 68.65 -60.98 67.94 -60.26 67.21 C-58.38 65.6 -58.38 65.6 -56.38 65.6 C-56.18 65.07 -55.97 64.53 -55.76 63.98 C-53.8 60.6 -51.2 58.3 -48.38 55.6 C-49.51 52.74 -50.69 49.92 -51.94 47.1 C-55.91 37.44 -55.62 26.71 -51.64 17.1 C-46.57 7.04 -38.94 0.41 -28.38 -3.4 C-19.23 -6.16 -8.22 -4.82 0 0 Z M-26.38 21.6 C-30.13 25.76 -31.78 28.49 -31.74 34.18 C-31.15 38.18 -29.36 41.58 -27.57 45.19 C-24.94 50.53 -24.53 55.43 -26.06 61.14 C-28.2 67 -30.8 70.44 -35.38 74.6 C-35.38 75.26 -35.38 75.92 -35.38 76.6 C-35.93 76.83 -36.48 77.06 -37.05 77.29 C-40.07 78.99 -42.19 81.15 -44.63 83.6 C-45.52 84.49 -46.42 85.38 -47.33 86.29 C-49.38 88.6 -49.38 88.6 -49.38 90.6 C-49.68 90.74 -49.68 90.74 -51.19 91.43 C-53.34 92.58 -54.72 93.7 -56.42 95.41 C-56.98 95.98 -57.55 96.54 -58.13 97.12 C-58.73 97.73 -59.32 98.34 -59.94 98.97 C-60.57 99.6 -61.19 100.23 -61.84 100.87 C-63.84 102.88 -65.83 104.9 -67.82 106.92 C-69.15 108.26 -70.49 109.61 -71.83 110.95 C-74.84 113.98 -77.84 117.02 -80.84 120.05 C-82.29 121.51 -83.74 122.96 -85.19 124.4 C-87.64 126.87 -89.84 129.47 -92.05 132.15 C-93.38 133.6 -93.38 133.6 -95.38 134.6 C-95.38 135.26 -95.38 135.92 -95.38 136.6 C-96.04 136.6 -96.7 136.6 -97.38 136.6 C-97.38 137.26 -97.38 137.92 -97.38 138.6 C-97.67 138.73 -97.67 138.73 -99.15 139.39 C-101.56 140.7 -103.2 142.16 -105.13 144.1 C-105.74 144.71 -106.36 145.32 -106.99 145.95 C-108.38 147.6 -108.38 147.6 -108.38 149.6 C-109.04 149.6 -109.7 149.6 -110.38 149.6 C-111.69 150.97 -111.69 150.97 -113.26 152.92 C-117.23 157.62 -121.71 161.63 -126.32 165.7 C-128.47 167.67 -130.37 169.73 -132.25 171.96 C-137.11 177.56 -142.39 182.73 -147.65 187.95 C-149.54 189.83 -151.44 191.72 -153.33 193.6 C-158.02 198.28 -162.72 202.96 -167.42 207.64 C-171.4 211.6 -175.39 215.56 -179.36 219.53 C-181.21 221.38 -183.07 223.22 -184.92 225.06 C-186.07 226.21 -187.22 227.35 -188.37 228.5 C-188.63 228.75 -188.63 228.75 -189.91 230.02 C-192.58 232.69 -195.11 235.43 -197.57 238.29 C-201.33 242.61 -205.31 246.67 -209.37 250.71 C-210.15 251.48 -210.92 252.26 -211.72 253.06 C-214.3 255.63 -216.88 258.21 -219.46 260.78 C-221.32 262.64 -223.18 264.49 -225.03 266.35 C-229.02 270.33 -233.01 274.32 -237 278.3 C-242.78 284.06 -248.55 289.83 -254.32 295.6 C-263.69 304.96 -273.06 314.32 -282.44 323.68 C-283 324.24 -283.56 324.8 -284.14 325.38 C-288.11 329.35 -292.09 333.32 -296.07 337.29 C-300.62 341.83 -305.17 346.38 -309.71 350.92 C-310.27 351.48 -310.84 352.04 -311.41 352.61 C-320.76 361.94 -330.1 371.28 -339.44 380.61 C-345.2 386.37 -350.96 392.12 -356.72 397.87 C-361.13 402.27 -365.54 406.67 -369.95 411.08 C-371.76 412.88 -373.56 414.69 -375.37 416.49 C-377.84 418.95 -380.31 421.42 -382.77 423.88 C-383.13 424.24 -383.13 424.24 -384.95 426.05 C-388.32 429.43 -391.46 432.82 -394.38 436.6 C-396.72 439.06 -398.95 441.29 -401.69 443.29 C-402.25 443.73 -402.81 444.16 -403.38 444.6 C-403.38 445.26 -403.38 445.92 -403.38 446.6 C-403.7 446.74 -403.7 446.74 -405.32 447.42 C-407.38 448.6 -407.38 448.6 -408.38 451.6 C-409.37 451.93 -410.36 452.26 -411.38 452.6 C-412.96 454.17 -412.96 454.17 -414.63 456.17 C-418.21 460.43 -418.21 460.43 -420.11 462.39 C-433.51 476.37 -439 496 -438.65 514.96 C-437.82 534.58 -429.33 551.16 -415.38 564.6 C-414.65 565.35 -413.92 566.1 -413.17 566.87 C-399.77 579.9 -381.33 584.28 -363.17 584.07 C-351.66 583.67 -341.58 580.96 -331.19 576.04 C-330.6 575.77 -330.01 575.5 -329.4 575.21 C-317.53 569.14 -307.72 558.24 -298.41 548.88 C-297.27 547.73 -296.13 546.59 -294.99 545.45 C-291.88 542.36 -288.79 539.26 -285.7 536.15 C-282.34 532.79 -278.99 529.44 -275.63 526.08 C-269.83 520.28 -264.03 514.47 -258.23 508.67 C-249.84 500.26 -241.45 491.86 -233.06 483.47 C-219.43 469.83 -205.8 456.2 -192.18 442.56 C-178.97 429.33 -165.75 416.1 -152.54 402.87 C-151.72 402.05 -150.91 401.24 -150.07 400.4 C-145.98 396.31 -141.89 392.21 -137.79 388.12 C-109.63 359.94 -81.47 331.75 -53.31 303.56 C-52.71 302.96 -52.11 302.36 -51.49 301.74 C-48.72 298.96 -45.94 296.18 -43.16 293.4 C-42.67 292.9 -42.18 292.41 -41.67 291.9 C-40.36 290.59 -39.06 289.28 -37.75 287.98 C-30.73 280.95 -30.73 280.95 -27.7 277.96 C-19.37 269.71 -19.37 269.71 -16.19 265.85 C-14.22 263.47 -12.14 261.46 -9.77 259.46 C-5.08 255.4 -0.69 251.07 3.68 246.67 C4.45 245.91 5.21 245.15 6 244.36 C6.75 243.61 7.5 242.86 8.28 242.08 C8.95 241.41 9.61 240.74 10.3 240.05 C12.2 238.04 14.02 236 15.83 233.9 C19.9 229.21 24.26 224.84 28.66 220.47 C29.5 219.63 30.35 218.78 31.22 217.92 C33.89 215.25 36.57 212.58 39.24 209.92 C41.05 208.12 42.85 206.32 44.66 204.52 C47.96 201.22 51.27 197.92 54.58 194.63 C57.6 191.62 60.61 188.62 63.62 185.6 C78.37 170.89 78.37 170.89 89.62 170.1 C95.28 170.4 100.71 172.99 105.61 175.71 C109.45 177.42 113.52 177.14 117.62 176.6 C121.47 174.65 124.71 172.54 126.62 168.6 C127.64 162.15 126.19 158.03 122.62 152.6 C120.94 150.67 119.18 148.79 117.37 146.98 C117.11 146.72 117.11 146.72 115.81 145.41 C114.09 143.68 112.36 141.96 110.63 140.25 C109.39 139.01 108.16 137.76 106.92 136.52 C103.56 133.16 100.2 129.8 96.83 126.45 C93.3 122.93 89.78 119.41 86.26 115.88 C80.34 109.96 74.42 104.05 68.5 98.15 C61.66 91.33 54.83 84.5 48 77.67 C41.42 71.08 34.84 64.5 28.25 57.93 C25.45 55.14 22.66 52.34 19.86 49.55 C16.57 46.25 13.27 42.96 9.96 39.67 C8.76 38.46 7.55 37.26 6.35 36.05 C-9.92 19.75 -9.92 19.75 -16.51 18.54 C-20.81 18.61 -22.84 19.19 -26.38 21.6 Z " fill="#E29955" transform="translate(516.381251335144,152.39517784118652)"/>
<path d="M0 0 C0.99 0.33 1.98 0.66 3 1 C4.64 9.35 6.12 17.69 7.39 26.1 C10.78 48.43 14.8 72.19 33 87.62 C50.39 100.27 71.92 103.31 92.68 106.21 C93.97 106.4 95.26 106.59 96.59 106.79 C97.76 106.95 98.92 107.11 100.12 107.28 C103.07 108.02 104.17 108.63 106 111 C101.92 113.85 98.11 114.73 93.27 115.39 C91.74 115.63 90.2 115.86 88.67 116.09 C87.88 116.21 87.08 116.33 86.26 116.45 C63.73 119.81 40.88 123.98 25 142 C11.57 161.09 8.53 184.88 5.39 207.46 C5.24 208.52 5.09 209.59 4.93 210.69 C4.8 211.64 4.67 212.59 4.53 213.57 C4 216 4 216 2 219 C1.01 218.67 0.02 218.34 -1 218 C-1.13 217.17 -1.25 216.34 -1.38 215.49 C-11.46 149.37 -11.46 149.37 -29.39 134.87 C-46.98 122.28 -66.15 118.56 -87.2 115.74 C-87.54 115.69 -87.54 115.69 -89.25 115.45 C-91.1 115.19 -92.96 114.95 -94.81 114.7 C-98.09 113.98 -100.25 112.89 -103 111 C-101 108 -101 108 -97.69 107.17 C-96.27 106.95 -94.85 106.74 -93.42 106.54 C-92.66 106.42 -91.9 106.3 -91.11 106.17 C-88.66 105.79 -86.2 105.43 -83.75 105.06 C-62.42 101.87 -39 98.08 -24 81 C-23.54 80.5 -23.09 79.99 -22.62 79.48 C-19.08 75.24 -16.65 70.57 -14.38 65.56 C-14.1 64.97 -13.82 64.38 -13.54 63.78 C-7.83 50.64 -6.2 35.83 -4.38 21.75 C-4.07 19.42 -3.76 17.09 -3.45 14.76 C-3.25 13.33 -3.07 11.9 -2.89 10.47 C-2.38 6.71 -1.58 3.45 0 0 Z " fill="#E5984C" transform="translate(241,111)"/>
<path d="M0 0 C0.99 0 1.98 0 3 0 C3.12 0.64 3.12 0.64 3.7 3.86 C13.07 54.75 13.07 54.75 27.87 66.57 C41.82 75.94 59.61 78.91 76 80.92 C80.08 81.47 82.29 81.89 85 85 C82.27 87.73 80.1 87.69 76.3 88.33 C74.91 88.58 73.52 88.82 72.13 89.06 C69.96 89.44 67.79 89.81 65.62 90.17 C50.13 92.78 31.88 96.46 21.19 108.94 C13.52 120 9.95 132.5 7.47 145.54 C6.96 148.23 6.42 150.91 5.87 153.59 C4.9 158.39 3.94 163.19 3 168 C1.68 168 0.36 168 -1 168 C-1.16 167.11 -1.31 166.23 -1.47 165.32 C-10.59 113.86 -10.59 113.86 -23.71 103.55 C-40.21 92.39 -60.75 90.06 -80 87 C-80 85.68 -80 84.36 -80 83 C-74.43 80.87 -68.79 80.06 -62.94 79.12 C-47.4 76.51 -28.42 73.01 -18 60 C-8.17 44.3 -5.03 26.71 -2.25 8.66 C-2.1 7.67 -1.95 6.69 -1.8 5.68 C-1.67 4.8 -1.54 3.92 -1.4 3.02 C-1 1 -1 1 0 0 Z " fill="#D8703B" transform="translate(547,519)"/>
<path d="M0 0 C0 0.66 0 1.32 0 2 C-1.05 2.52 -2.1 3.04 -3.18 3.57 C-4.6 4.28 -6.02 4.98 -7.44 5.69 C-8.13 6.03 -8.81 6.37 -9.52 6.72 C-17.99 10.93 -26.16 15.61 -34.25 20.5 C-35.03 20.96 -35.8 21.42 -36.6 21.89 C-40.97 24.54 -44.52 27.21 -48 31 C-49.11 32.08 -50.23 33.15 -51.38 34.19 C-51.9 34.68 -52.42 35.16 -52.96 35.67 C-59.42 39.89 -66.95 39.35 -74.38 39.31 C-75.54 39.31 -76.7 39.3 -77.89 39.3 C-93.25 39.08 -106.86 35.69 -121.52 31.3 C-124.66 30.37 -127.76 29.55 -131 29 C-132.65 31.64 -134.3 34.28 -136 37 C-136.88 33.48 -137.29 30.35 -137.56 26.75 C-137.65 25.67 -137.73 24.59 -137.82 23.48 C-137.88 22.66 -137.94 21.84 -138 21 C-139.65 20.34 -141.3 19.68 -143 19 C-143 19.66 -143 20.32 -143 21 C-143.66 21 -144.32 21 -145 21 C-145 21.66 -145 22.32 -145 23 C-145.66 23 -146.32 23 -147 23 C-147 23.66 -147 24.32 -147 25 C-148.54 26.48 -148.54 26.48 -150.62 28.19 C-155.71 32.51 -160.16 36.9 -163 43 C-164.32 43 -165.64 43 -167 43 C-167 43.66 -167 44.32 -167 45 C-168.42 46.39 -168.42 46.39 -170.41 48.04 C-175.36 52.25 -179.9 56.81 -184.46 61.43 C-186.25 63.23 -188.04 65.03 -189.82 66.83 C-192.62 69.65 -195.41 72.47 -198.2 75.29 C-200.91 78.03 -203.62 80.76 -206.34 83.5 C-206.76 83.92 -206.76 83.92 -208.88 86.08 C-209.65 86.86 -210.43 87.64 -211.23 88.44 C-211.91 89.13 -212.59 89.82 -213.29 90.53 C-215 92 -215 92 -217 92 C-215.7 89.15 -214.31 87.05 -212.12 84.81 C-211.54 84.2 -210.95 83.6 -210.35 82.97 C-209.7 82.32 -209.06 81.67 -208.4 81 C-207.72 80.3 -207.04 79.6 -206.34 78.89 C-204.1 76.59 -201.85 74.3 -199.59 72.01 C-199.2 71.62 -199.2 71.62 -197.26 69.64 C-193.18 65.5 -189.1 61.38 -185.01 57.25 C-181.63 53.84 -178.26 50.41 -174.9 46.96 C-170.85 42.8 -166.78 38.67 -162.68 34.56 C-161.12 32.99 -159.58 31.41 -158.04 29.82 C-155.89 27.59 -153.7 25.41 -151.51 23.23 C-151.19 22.89 -151.19 22.89 -149.6 21.21 C-147.78 19.44 -146.29 18.11 -144 17 C-140.75 17.05 -138.03 17.87 -135 19 C-134.04 19.28 -133.08 19.56 -132.09 19.85 C-131.24 20.11 -130.38 20.36 -129.5 20.62 C-101.66 27.48 -69.18 16.72 -42.34 9.72 C-41.22 9.43 -40.1 9.13 -38.94 8.83 C-33.24 7.34 -27.54 5.84 -21.85 4.32 C-21.31 4.18 -21.31 4.18 -18.6 3.46 C-16.56 2.92 -14.53 2.38 -12.5 1.83 C-11.59 1.59 -10.67 1.35 -9.73 1.1 C-8.93 0.89 -8.14 0.67 -7.32 0.45 C-4.83 -0.03 -2.53 -0.08 0 0 Z " fill="#F0D091" transform="translate(500,369)"/>
<path d="M0 0 C3 2 3 2 3.63 3.81 C3.75 4.53 3.87 5.26 3.99 6 C4.06 6.4 4.06 6.4 4.43 8.43 C4.58 9.27 4.72 10.12 4.88 11 C6.57 19.78 8.46 27.12 14.62 33.88 C22.48 38.82 31.07 40.59 40.13 42.19 C43 43 43 43 45 46 C40.77 47.5 36.66 48.5 32.25 49.31 C24.55 50.94 15.96 53.23 11.08 59.96 C6.31 68.95 4.02 79.1 2 89 C1.01 89 0.02 89 -1 89 C-1.06 88.71 -1.06 88.71 -1.38 87.23 C-7.12 60.85 -7.12 60.85 -14 55.12 C-22.23 50.06 -32.59 48.43 -42 47 C-42 45.68 -42 44.36 -42 43 C-41.69 42.94 -41.69 42.94 -40.11 42.62 C-37.23 42.03 -34.37 41.42 -31.5 40.81 C-30.52 40.62 -29.54 40.42 -28.52 40.22 C-20.89 38.56 -15.12 36.21 -9.63 30.56 C-4.69 22.8 -3.37 12.62 -1.61 3.7 C-1 1 -1 1 0 0 Z " fill="#B6723E" transform="translate(642,429)"/>
<path d="M0 0 C2.88 1.5 2.88 1.5 5 4 C5.68 7.38 5.91 8.82 5 12 C-0.3 19.68 -8 26.06 -14.62 32.58 C-18.27 36.2 -21.89 39.79 -25.23 43.7 C-30.35 49.66 -35.9 55.24 -41.42 60.83 C-42.73 62.15 -44.02 63.49 -45.32 64.82 C-47.2 66.78 -49.11 68.71 -51.02 70.64 C-51.59 71.24 -52.16 71.83 -52.74 72.44 C-58.13 77.81 -64.02 80.03 -71.6 80.29 C-73.09 80.27 -74.57 80.24 -76.06 80.19 C-76.45 80.18 -76.45 80.18 -78.4 80.15 C-80.26 80.11 -82.13 80.06 -84 80 C-83.59 75.12 -81.23 72.68 -77.87 69.4 C-77.34 68.87 -76.81 68.33 -76.26 67.78 C-74.49 66.01 -72.71 64.26 -70.93 62.51 C-69.7 61.28 -68.46 60.05 -67.23 58.81 C-64.64 56.23 -62.04 53.65 -59.44 51.08 C-56.12 47.8 -52.81 44.51 -49.51 41.22 C-46.34 38.06 -43.17 34.91 -40 31.76 C-39.4 31.16 -38.8 30.57 -38.19 29.96 C-26.69 18.54 -26.69 18.54 -20.5 13.31 C-18.58 11.63 -16.97 9.79 -15.38 7.81 C-11.06 2.77 -7.03 -1.2 0 0 Z " fill="#E5B46A" transform="translate(454,300)"/>
<path d="M0 0 C5.66 3.98 10.83 9.58 12.12 16.5 C12.73 23.83 11.3 29.96 7.44 36.25 C2.11 41.43 -3.21 44.26 -10.62 44.75 C-18.03 44.63 -23.66 41.72 -28.88 36.5 C-33.16 30.41 -34.59 24.91 -33.88 17.5 C-32.48 10.88 -28.82 6 -23.88 1.5 C-17.29 -2.72 -7.11 -3.62 0 0 Z " fill="#E9B063" transform="translate(688.875,206.5)"/>
<path d="M0 0 C5.28 5.57 7.58 10.57 7.94 18.31 C7.66 25.26 5.91 30.19 1.25 35.38 C-4.39 39.97 -9.73 41.82 -16.99 41.71 C-23.71 40.89 -29.07 37.72 -33.25 32.44 C-37.21 26.44 -38.86 20.53 -37.75 13.38 C-35.23 6.11 -31.8 0.91 -24.84 -2.59 C-16.1 -6.26 -8 -4.73 0 0 Z " fill="#EDBF6F" transform="translate(687.75,109.625)"/>
<path d="M0 0 C3 2 3 2 3.81 5.2 C4.02 6.49 4.22 7.79 4.44 9.12 C5.67 16.02 6.92 21.9 12.02 27.04 C16.07 29.7 20.13 30.64 24.81 31.75 C25.25 31.86 25.25 31.86 27.49 32.42 C29.66 32.96 31.83 33.48 34 34 C34.16 34.66 34.16 34.66 35 38 C34.73 38.06 34.73 38.06 33.35 38.38 C30.85 38.96 28.37 39.58 25.88 40.19 C25.02 40.38 24.16 40.58 23.28 40.78 C16.89 42.38 12.46 44.36 8.64 50 C6.3 55.64 4.94 61.27 3.81 67.28 C3 70 3 70 0 72 C-2.28 66.73 -3.47 61.26 -4.8 55.69 C-6.32 51.01 -8.12 47.4 -12.12 44.43 C-18.88 41.18 -25.65 39.42 -33 38 C-33 37.01 -33 36.02 -33 35 C-29.94 33.95 -26.89 32.97 -23.78 32.11 C-10.77 28.46 -10.77 28.46 -6.87 22.17 C-3.97 16.37 -2.82 10.18 -1.61 3.84 C-1 1 -1 1 0 0 Z " fill="#B4713D" transform="translate(151,341)"/>
<path d="M0 0 C3.32 2.61 3.72 5.26 4.5 9.31 C6.1 16.74 7.56 21.59 14 26 C16.88 27.14 19.82 27.95 22.81 28.75 C23.6 28.97 24.39 29.19 25.2 29.42 C27.13 29.96 29.07 30.48 31 31 C31 31.99 31 32.98 31 34 C29.76 34.38 28.52 34.75 27.24 35.14 C25.6 35.65 23.95 36.17 22.31 36.69 C21.9 36.81 21.9 36.81 19.84 37.43 C14.74 39.06 11.4 40.66 8 45 C6.74 47.58 6.74 47.58 5.88 50.25 C5.56 51.2 5.24 52.15 4.91 53.13 C4.61 54.08 4.31 55.02 4 56 C3.42 57.73 2.83 59.46 2.25 61.19 C1.83 62.46 1.41 63.73 1 65 C0.34 64.67 -0.32 64.34 -1 64 C-2.11 60.53 -3.05 57.05 -3.97 53.52 C-5.46 48.09 -7.11 42.98 -11.97 39.64 C-12.66 39.37 -13.35 39.1 -14.06 38.81 C-14.84 38.5 -15.61 38.2 -16.41 37.88 C-20.88 36.36 -25.42 35.13 -30 34 C-30 33.01 -30 32.02 -30 31 C-28.83 30.69 -27.66 30.37 -26.46 30.05 C-24.91 29.62 -23.36 29.18 -21.81 28.75 C-21.04 28.55 -20.27 28.34 -19.48 28.13 C-14.13 26.61 -9.9 24.93 -6.74 20.06 C-4.45 14.62 -2.92 9.17 -1.61 3.41 C-1 1 -1 1 0 0 Z " fill="#C38449" transform="translate(377,109)"/>
<path d="M0 0 C4.18 4.29 6.07 8.36 6.38 14.31 C6.21 20.02 4.45 24.44 0.49 28.57 C-3.91 32.15 -8.37 33.3 -14 33 C-20.28 31.99 -23.68 28.72 -27.65 23.94 C-30.78 19.44 -30.69 14.26 -30 9 C-27.78 3.37 -24.35 -0.15 -19 -3 C-12.18 -5.64 -5.84 -3.92 0 0 Z " fill="#EBBE6E" transform="translate(640,46)"/>
<path d="M0 0 C5.03 2.84 8.13 6.73 9.69 12.31 C10.31 18.64 9.36 23.06 5.69 28.31 C1.83 32.38 -1.87 34.44 -7.5 34.62 C-13.22 34.54 -17.72 32.77 -21.89 28.82 C-25.83 24.28 -26.67 20.53 -26.59 14.72 C-25.96 9.23 -23.39 4.97 -19.25 1.38 C-13.34 -2.78 -6.53 -3.03 0 0 Z " fill="#ECBE6C" transform="translate(533.3125,56.6875)"/>
<path d="M0 0 C2.49 3.73 2.63 6.68 2 11 C-4.31 24.78 -25.72 34.2 -38.12 42.06 C-66.04 59.76 -66.04 59.76 -73.65 67.73 C-75 69 -75 69 -77 69 C-75.73 63.82 -73.47 61.06 -69.5 57.69 C-68.97 57.22 -68.43 56.74 -67.88 56.26 C-66.79 55.29 -65.69 54.33 -64.58 53.38 C-62.28 51.37 -60.02 49.31 -57.75 47.25 C-54.92 44.7 -52.07 42.18 -49.19 39.69 C-37.25 29.27 -25.6 18.62 -15.85 6.09 C-15.24 5.4 -14.63 4.71 -14 4 C-13.34 4 -12.68 4 -12 4 C-11.67 3.01 -11.34 2.02 -11 1 C-7.04 -0.8 -4.15 -1.5 0 0 Z " fill="#F7C168" transform="translate(386,430)"/>
<path d="M0 0 C4.35 2.27 6.95 4.87 8.93 9.32 C9.68 14.92 9.7 19.65 7.3 24.82 C3.04 29.3 -0.86 31.93 -7.05 32.41 C-11.93 32.18 -15.29 29.99 -18.88 26.88 C-22.84 22.24 -23.51 18.8 -23.39 12.79 C-22.7 7.48 -18.97 3.72 -15.07 0.32 C-10.22 -1.3 -4.91 -1.62 0 0 Z " fill="#EBBD6E" transform="translate(595.0703125,94.68359375)"/>
<path d="M0 0 C4.86 2.3 7.7 5.14 10 10 C10.82 16.2 10.71 21.76 7 27 C1.82 31.67 -1.4 32.35 -8.24 32.28 C-13.36 31.76 -15.99 29.12 -19.31 25.44 C-22.24 21.21 -22.65 17.02 -22 12 C-20.38 7.23 -17.33 3.62 -13.12 0.88 C-8.83 -0.9 -4.53 -0.73 0 0 Z " fill="#EBBD6E" transform="translate(616,148)"/>
<path d="M0 0 C0.99 0.33 1.98 0.66 3 1 C2.32 1.68 1.63 2.37 0.93 3.07 C-15.74 19.71 -32.4 36.35 -49.05 53 C-57.11 61.05 -65.16 69.1 -73.22 77.15 C-80.25 84.16 -87.27 91.18 -94.29 98.2 C-98.01 101.91 -101.72 105.63 -105.44 109.34 C-108.95 112.84 -112.45 116.34 -115.95 119.84 C-117.23 121.12 -118.51 122.4 -119.8 123.68 C-131.57 135.42 -131.57 135.42 -136.65 141.45 C-138.76 143.88 -141.15 145.95 -143.56 148.06 C-148.3 152.3 -152.7 156.76 -157 161.44 C-165.57 170.74 -174.27 179.88 -184 188 C-184.85 188.73 -185.7 189.46 -186.58 190.21 C-208.8 208.92 -234.33 215.14 -263 213 C-266.7 212.46 -270.35 211.79 -274 211 C-274 210.67 -274 210.34 -274 210 C-271.19 209.97 -268.38 209.95 -265.56 209.94 C-264.76 209.93 -263.96 209.92 -263.13 209.91 C-261.09 209.9 -259.04 209.95 -257 210 C-256.67 210.33 -256.34 210.66 -256 211 C-247.35 211.73 -238.51 210.52 -230 209 C-229.67 208.67 -229.34 208.34 -229 208 C-228.07 207.92 -227.14 207.84 -226.19 207.75 C-217.35 206.58 -209.1 201.69 -201.47 197.33 C-199.03 196.02 -196.59 194.98 -194 194 C-194 193.34 -194 192.68 -194 192 C-193.34 192 -192.68 192 -192 192 C-192 191.34 -192 190.68 -192 190 C-191.34 190 -190.68 190 -190 190 C-190 189.34 -190 188.68 -190 188 C-187.36 186.22 -185.03 185.01 -182 184 C-182 183.34 -182 182.68 -182 182 C-181.34 182 -180.68 182 -180 182 C-180 181.34 -180 180.68 -180 180 C-179.34 180 -178.68 180 -178 180 C-178 179.34 -178 178.68 -178 178 C-177.34 178 -176.68 178 -176 178 C-176 177.34 -176 176.68 -176 176 C-175.34 176 -174.68 176 -174 176 C-174 175.34 -174 174.68 -174 174 C-173.34 174 -172.68 174 -172 174 C-172 173.34 -172 172.68 -172 172 C-171.34 172 -170.68 172 -170 172 C-170 171.34 -170 170.68 -170 170 C-168.12 167.88 -168.12 167.88 -166 166 C-165.34 166 -164.68 166 -164 166 C-164 165.34 -164 164.68 -164 164 C-163.34 164 -162.68 164 -162 164 C-162 163.34 -162 162.68 -162 162 C-161.34 162 -160.68 162 -160 162 C-160 161.34 -160 160.68 -160 160 C-159.34 160 -158.68 160 -158 160 C-158 159.34 -158 158.68 -158 158 C-157.34 158 -156.68 158 -156 158 C-155.88 157.6 -155.88 157.6 -155.25 155.56 C-154 153 -154 153 -151.88 152.19 C-151.26 152.13 -150.64 152.06 -150 152 C-150 151.34 -150 150.68 -150 150 C-149.34 150 -148.68 150 -148 150 C-148 149.01 -148 148.02 -148 147 C-144.67 144 -144.67 144 -142 144 C-142 143.34 -142 142.68 -142 142 C-140.12 139.88 -140.12 139.88 -138 138 C-137.34 138 -136.68 138 -136 138 C-135.34 136.68 -134.68 135.36 -134 134 C-133.34 134 -132.68 134 -132 134 C-132 133.34 -132 132.68 -132 132 C-131.34 132 -130.68 132 -130 132 C-129.74 131.42 -129.49 130.84 -129.23 130.24 C-127.87 127.77 -126.36 126.1 -124.38 124.11 C-123.67 123.4 -122.96 122.69 -122.23 121.96 C-121.5 121.23 -120.76 120.5 -120 119.75 C-119.26 119 -118.53 118.26 -117.77 117.49 C-117.06 116.79 -116.35 116.08 -115.62 115.36 C-114.98 114.71 -114.33 114.07 -113.66 113.41 C-112 112 -112 112 -110 112 C-110 111.34 -110 110.68 -110 110 C-109.34 110 -108.68 110 -108 110 C-107.78 109.45 -107.57 108.89 -107.35 108.32 C-105.53 105.2 -103.15 103.25 -100.44 100.88 C-95.1 96.19 -95.1 96.19 -94 94 C-93.34 94 -92.68 94 -92 94 C-92 93.34 -92 92.68 -92 92 C-91.34 92 -90.68 92 -90 92 C-90 91.34 -90 90.68 -90 90 C-89.34 90 -88.68 90 -88 90 C-87.67 89.34 -87.67 89.34 -86 86 C-85.34 86 -84.68 86 -84 86 C-83.67 84.68 -83.34 83.36 -83 82 C-82.01 82 -81.02 82 -80 82 C-79.67 81.34 -79.67 81.34 -78 78 C-77.34 78 -76.68 78 -76 78 C-76 77.34 -76 76.68 -76 76 C-75.34 76 -74.68 76 -74 76 C-73.94 75.46 -73.88 74.93 -73.81 74.38 C-71.83 68.59 -66.02 63.36 -61 60 C-60.01 60 -59.02 60 -58 60 C-58 59.34 -58 58.68 -58 58 C-57.34 58 -56.68 58 -56 58 C-55.81 57.32 -55.63 56.64 -55.44 55.94 C-53.04 51.03 -49.14 47.25 -44.44 44.5 C-41.37 42.61 -39.54 40.24 -37.33 37.43 C-36.89 36.96 -36.45 36.48 -36 36 C-35.34 36 -34.68 36 -34 36 C-34 35.34 -34 34.68 -34 34 C-33.34 34 -32.68 34 -32 34 C-31.95 33.68 -31.95 33.68 -31.69 32.06 C-31.57 31.72 -31.57 31.72 -31 30 C-30.01 29.67 -29.02 29.34 -28 29 C-27.69 28.34 -27.38 27.68 -27.06 27 C-26 25 -26 25 -23.88 24.25 C-23.57 24.21 -23.57 24.21 -22 24 C-22 23.34 -22 22.68 -22 22 C-21.34 22 -20.68 22 -20 22 C-20 21.34 -20 20.68 -20 20 C-19.34 20 -18.68 20 -18 20 C-18 19.34 -18 18.68 -18 18 C-17.34 18 -16.68 18 -16 18 C-16 17.34 -16 16.68 -16 16 C-15.34 16 -14.68 16 -14 16 C-14 15.34 -14 14.68 -14 14 C-13.34 14 -12.68 14 -12 14 C-12 13.34 -12 12.68 -12 12 C-11.34 12 -10.68 12 -10 12 C-10 11.34 -10 10.68 -10 10 C-9.34 10 -8.68 10 -8 10 C-8 9.34 -8 8.68 -8 8 C-7.34 8 -6.68 8 -6 8 C-6 7.34 -6 6.68 -6 6 C-5.34 6 -4.68 6 -4 6 C-4 5.34 -4 4.68 -4 4 C-3.34 4 -2.68 4 -2 4 C-1.34 2.68 -0.68 1.36 0 0 Z " fill="#C08763" transform="translate(401,546)"/>
<path d="M0 0 C0.33 0.17 0.33 0.17 2 1 C-2.45 6.19 -7.03 11.18 -11.88 16 C-12.53 16.65 -13.19 17.31 -13.86 17.99 C-16.04 20.16 -18.21 22.33 -20.39 24.5 C-21.96 26.07 -23.53 27.64 -25.09 29.21 C-29.33 33.45 -33.57 37.68 -37.82 41.92 C-42.26 46.35 -46.69 50.79 -51.13 55.22 C-58.57 62.66 -66.02 70.1 -73.46 77.54 C-81.13 85.19 -88.79 92.85 -96.45 100.51 C-96.93 100.98 -97.4 101.45 -97.89 101.94 C-100.26 104.31 -102.63 106.68 -105.01 109.06 C-124.67 128.71 -144.33 148.36 -164 168 C-164.33 166.68 -164.66 165.36 -165 164 C-164.34 164 -163.68 164 -163 164 C-163 163.34 -163 162.68 -163 162 C-162.34 162 -161.68 162 -161 162 C-161 161.34 -161 160.68 -161 160 C-160.01 160 -159.02 160 -158 160 C-157.92 159.24 -157.83 158.47 -157.75 157.69 C-157 155 -157 155 -155.12 153.19 C-153 152 -153 152 -150 152 C-150 151.34 -150 150.68 -150 150 C-149.34 150 -148.68 150 -148 150 C-148 149.34 -148 148.68 -148 148 C-147.34 148 -146.68 148 -146 148 C-145.67 147.34 -145.67 147.34 -144 144 C-143.34 144 -142.68 144 -142 144 C-141.67 142.68 -141.34 141.36 -141 140 C-140.01 140 -139.02 140 -138 140 C-137.67 138.68 -137.34 137.36 -137 136 C-136.01 136 -135.02 136 -134 136 C-133.89 135.41 -133.79 134.81 -133.68 134.2 C-132.91 131.7 -131.98 130.58 -130.12 128.75 C-129.87 128.49 -129.87 128.49 -128.57 127.17 C-127 126 -127 126 -124 126 C-124 125.01 -124 124.02 -124 123 C-123.01 123 -122.02 123 -121 123 C-120.71 122.42 -120.42 121.85 -120.12 121.25 C-119.75 120.51 -119.38 119.76 -119 119 C-118.75 118.34 -118.5 117.68 -118.25 117 C-116.45 114.12 -113.8 112.85 -111 111 C-110.83 110.5 -110.83 110.5 -110 108 C-109.01 107.67 -108.02 107.34 -107 107 C-105.28 105.19 -105.28 105.19 -103.5 103 C-100.33 99.11 -100.33 99.11 -97 98 C-96.3 96.69 -95.63 95.35 -95 94 C-93.58 92.34 -93.58 92.34 -91.91 90.69 C-91.29 90.06 -90.67 89.44 -90.02 88.8 C-89.35 88.13 -88.67 87.47 -87.98 86.79 C-87.28 86.09 -86.59 85.4 -85.87 84.69 C-83.65 82.47 -81.42 80.27 -79.19 78.06 C-77.7 76.58 -76.21 75.1 -74.72 73.62 C-71.37 70.29 -68.02 66.97 -64.67 63.66 C-63.6 62.6 -62.55 61.54 -61.51 60.46 C-59.09 57.97 -57.55 56.39 -54 56 C-54 55.34 -54 54.68 -54 54 C-53.34 54 -52.68 54 -52 54 C-52 53.34 -52 52.68 -52 52 C-51.34 52 -50.68 52 -50 52 C-50 51.34 -50 50.68 -50 50 C-49.34 50 -48.68 50 -48 50 C-47.89 49.41 -47.79 48.81 -47.68 48.2 C-46.91 45.7 -45.98 44.58 -44.12 42.75 C-43.87 42.49 -43.87 42.49 -42.57 41.17 C-41 40 -41 40 -38 40 C-38 39.34 -38 38.68 -38 38 C-37.34 38 -36.68 38 -36 38 C-36 37.34 -36 36.68 -36 36 C-35.34 36 -34.68 36 -34 36 C-34 35.34 -34 34.68 -34 34 C-33.34 34 -32.68 34 -32 34 C-31.89 33.4 -31.78 32.8 -31.66 32.19 C-30.57 28.58 -27.75 26.32 -25.12 23.75 C-24.58 23.2 -24.04 22.64 -23.48 22.07 C-19.38 18 -19.38 18 -16 18 C-16 17.34 -16 16.68 -16 16 C-15.34 16 -14.68 16 -14 16 C-13.67 14.68 -13.34 13.36 -13 12 C-12.34 12 -11.68 12 -11 12 C-11 11.34 -11 10.68 -11 10 C-10.01 10 -9.02 10 -8 10 C-8 9.34 -8 8.68 -8 8 C-7.34 8 -6.68 8 -6 8 C-6 7.34 -6 6.68 -6 6 C-5.34 6 -4.68 6 -4 6 C-4 5.34 -4 4.68 -4 4 C-3.34 4 -2.68 4 -2 4 C-2 3.34 -2 2.68 -2 2 C-1.34 2 -0.68 2 0 2 C0 1.34 0 0.68 0 0 Z " fill="#C6A578" transform="translate(469,414)"/>
<path d="M0 0 C1 1 1 1 1.5 4.5 C1.39 10.41 -2.04 13.93 -6 18 C-12.94 24.63 -23.52 32.64 -33.42 33.19 C-34.27 33.13 -35.12 33.06 -36 33 C-33.94 28.54 -31.55 24.91 -28.44 21.12 C-27.65 20.16 -26.87 19.19 -26.06 18.2 C-25.38 17.47 -24.7 16.75 -24 16 C-23.34 16 -22.68 16 -22 16 C-21.9 15.73 -21.9 15.73 -21.37 14.39 C-19.43 11.01 -16.82 8.53 -14.06 5.81 C-13.52 5.27 -12.99 4.72 -12.43 4.16 C-8.16 -0.09 -5.91 -1.55 0 0 Z " fill="#F8BF62" transform="translate(288,541)"/>
<path d="M0 0 C3.73 0.92 5.4 2.61 7.96 5.48 C9.38 9.31 9.07 11.13 7.9 15.05 C5.01 20.18 2.12 22.88 -3.6 24.48 C-8.39 24.48 -10.49 22.98 -13.85 19.73 C-15.56 16.48 -15.42 14.11 -15.04 10.48 C-12.26 4.01 -7.2 -0.5 0 0 Z " fill="#E4B66C" transform="translate(472.03515625,276.515625)"/>
<path d="M0 0 C0.99 0.33 1.98 0.66 3 1 C-2.43 7.61 -8.46 13.59 -14.51 19.63 C-15.68 20.79 -16.84 21.95 -18 23.12 C-21.15 26.26 -24.29 29.4 -27.44 32.54 C-30.73 35.82 -34.02 39.11 -37.31 42.4 C-43.53 48.62 -49.76 54.84 -55.99 61.06 C-63.08 68.14 -70.17 75.23 -77.26 82.31 C-91.84 96.88 -106.42 111.44 -121 126 C-121.33 124.68 -121.66 123.36 -122 122 C-121.34 122 -120.68 122 -120 122 C-119.67 121.01 -119.34 120.02 -119 119 C-118.01 119 -117.02 119 -116 119 C-115.91 118.42 -115.81 117.83 -115.71 117.23 C-114.84 114.5 -113.61 113.24 -111.56 111.25 C-110.95 110.64 -110.33 110.02 -109.69 109.39 C-108 108 -108 108 -106 108 C-105.83 107.5 -105.83 107.5 -105 105 C-104.01 105 -103.02 105 -102 105 C-101.67 103.68 -101.34 102.36 -101 101 C-100.01 101 -99.02 101 -98 101 C-98 100.34 -98 99.68 -98 99 C-97.34 99 -96.68 99 -96 99 C-96 98.34 -96 97.68 -96 97 C-95.34 97 -94.68 97 -94 97 C-94 96.34 -94 95.68 -94 95 C-93.34 95 -92.68 95 -92 95 C-92 94.34 -92 93.68 -92 93 C-91.34 93 -90.68 93 -90 93 C-90 92.34 -90 91.68 -90 91 C-89.34 91 -88.68 91 -88 91 C-87.69 90.38 -87.38 89.76 -87.06 89.12 C-86.38 87.75 -85.69 86.38 -85 85 C-84.01 85 -83.02 85 -82 85 C-82 84.01 -82 83.02 -82 82 C-81.34 81.84 -81.34 81.84 -78 81 C-78 80.34 -78 79.68 -78 79 C-77.34 79 -76.68 79 -76 79 C-76 78.34 -76 77.68 -76 77 C-75.34 77 -74.68 77 -74 77 C-74 76.34 -74 75.68 -74 75 C-73.34 75 -72.68 75 -72 75 C-71.75 74.22 -71.5 73.43 -71.25 72.62 C-69.79 69.56 -68.95 69.38 -66 68 C-65.71 67.4 -65.42 66.8 -65.12 66.19 C-63.78 63.57 -61.94 62.23 -59.65 60.43 C-57.27 58.37 -55.41 55.95 -53.49 53.45 C-51.72 51.73 -50.41 51.39 -48 51 C-48 50.34 -48 49.68 -48 49 C-47.34 49 -46.68 49 -46 49 C-46 48.34 -46 47.68 -46 47 C-45.34 47 -44.68 47 -44 47 C-44 46.34 -44 45.68 -44 45 C-43.34 45 -42.68 45 -42 45 C-42 44.34 -42 43.68 -42 43 C-41.34 43 -40.68 43 -40 43 C-39.86 42.71 -39.86 42.71 -39.17 41.21 C-36.11 35.44 -31.18 30.88 -26 27 C-25.34 27 -24.68 27 -24 27 C-24 26.34 -24 25.68 -24 25 C-23.34 25 -22.68 25 -22 25 C-22 24.34 -22 23.68 -22 23 C-21.34 23 -20.68 23 -20 23 C-19.67 21.68 -19.34 20.36 -19 19 C-18.01 19 -17.02 19 -16 19 C-16 18.34 -16 17.68 -16 17 C-15.34 17 -14.68 17 -14 17 C-13.88 16.6 -13.88 16.6 -13.25 14.56 C-12.84 13.72 -12.42 12.87 -12 12 C-10.68 11.63 -9.34 11.29 -8 11 C-7.31 9.68 -6.65 8.34 -6 7 C-5 5.72 -3.95 4.47 -2.88 3.25 C-2.34 2.64 -1.8 2.02 -1.24 1.39 C-0.83 0.93 -0.42 0.47 0 0 Z " fill="#BA9670" transform="translate(563,383)"/>
<path d="M0 0 C0.66 0 1.32 0 2 0 C1.42 3.37 0.4 4.97 -2.06 7.31 C-2.34 7.58 -2.34 7.58 -3.72 8.93 C-5.05 10.14 -6.39 11.33 -7.76 12.5 C-12.76 16.79 -17.29 21.34 -21.75 26.19 C-30.77 35.87 -39.82 45.51 -50 54 C-50.85 54.73 -51.7 55.46 -52.58 56.21 C-74.8 74.92 -100.33 81.14 -129 79 C-132.7 78.46 -136.35 77.79 -140 77 C-140 76.67 -140 76.34 -140 76 C-137.19 75.97 -134.38 75.95 -131.56 75.94 C-130.76 75.93 -129.96 75.92 -129.13 75.91 C-127.09 75.9 -125.04 75.95 -123 76 C-122.84 76.16 -122.84 76.16 -122 77 C-113.35 77.73 -104.51 76.52 -96 75 C-95.67 74.67 -95.34 74.34 -95 74 C-94.07 73.92 -93.14 73.84 -92.19 73.75 C-83.35 72.58 -75.1 67.69 -67.47 63.33 C-65.03 62.02 -62.59 60.98 -60 60 C-60 59.34 -60 58.68 -60 58 C-59.34 58 -58.68 58 -58 58 C-58 57.34 -58 56.68 -58 56 C-57.34 56 -56.68 56 -56 56 C-56 55.34 -56 54.68 -56 54 C-53.36 52.22 -51.03 51.01 -48 50 C-48 49.34 -48 48.68 -48 48 C-47.34 48 -46.68 48 -46 48 C-46 47.34 -46 46.68 -46 46 C-45.34 46 -44.68 46 -44 46 C-44 45.34 -44 44.68 -44 44 C-43.34 44 -42.68 44 -42 44 C-42 43.34 -42 42.68 -42 42 C-41.34 42 -40.68 42 -40 42 C-40 41.34 -40 40.68 -40 40 C-39.34 40 -38.68 40 -38 40 C-38 39.34 -38 38.68 -38 38 C-37.34 38 -36.68 38 -36 38 C-36 37.34 -36 36.68 -36 36 C-34.13 33.88 -34.13 33.88 -32 32 C-31.34 32 -30.68 32 -30 32 C-30 31.34 -30 30.68 -30 30 C-29.34 30 -28.68 30 -28 30 C-28 29.34 -28 28.68 -28 28 C-27.34 28 -26.68 28 -26 28 C-26 27.34 -26 26.68 -26 26 C-25.34 26 -24.68 26 -24 26 C-24 25.34 -24 24.68 -24 24 C-23.34 24 -22.68 24 -22 24 C-21.88 23.6 -21.88 23.6 -21.25 21.56 C-20 19 -20 19 -17.88 18.19 C-17.57 18.16 -17.57 18.16 -16 18 C-16 17.34 -16 16.68 -16 16 C-15.34 16 -14.68 16 -14 16 C-14 15.01 -14 14.02 -14 13 C-10.67 10 -10.67 10 -8 10 C-8 9.34 -8 8.68 -8 8 C-6.12 5.88 -6.12 5.88 -4 4 C-3.34 4 -2.68 4 -2 4 C-1.34 2.68 -0.68 1.36 0 0 Z " fill="#A76D4E" transform="translate(267,680)"/>
<path d="M0 0 C1.32 0 2.64 0 4 0 C4.09 0.89 4.17 1.77 4.26 2.68 C5.09 9.98 6.37 16.69 8.62 23.69 C10.76 30.42 12.19 36.89 11 44 C9 46 9 46 5.88 46.12 C4.93 46.08 3.98 46.04 3 46 C1.5 43 1.75 39.86 1.62 36.56 C1.28 29.08 0.32 21.8 -0.98 14.42 C-1.71 10.25 -2.36 6.26 -2 2 C-1.34 1.34 -0.68 0.68 0 0 Z " fill="#F8BD61" transform="translate(290,498)"/>
<path d="M0 0 C0.99 0.66 1.98 1.32 3 2 C2.26 2.74 1.52 3.47 0.76 4.23 C-6.21 11.19 -13.19 18.15 -20.16 25.11 C-23.74 28.68 -27.33 32.26 -30.91 35.84 C-34.38 39.29 -37.84 42.75 -41.3 46.2 C-42.62 47.52 -43.93 48.83 -45.25 50.15 C-47.11 52 -48.96 53.85 -50.81 55.7 C-51.35 56.23 -51.89 56.77 -52.45 57.32 C-55.7 60.59 -58.75 63.97 -61.71 67.51 C-63.26 69.3 -64.92 70.81 -66.75 72.31 C-70 75.06 -72.93 77.98 -75.88 81.06 C-85.16 90.4 -97.65 96.77 -110.99 97.1 C-112.43 97.09 -113.87 97.08 -115.31 97.06 C-116.05 97.06 -116.79 97.05 -117.56 97.05 C-119.37 97.04 -121.19 97.02 -123 97 C-123 96.67 -123 96.34 -123 96 C-122.03 95.96 -121.07 95.93 -120.07 95.89 C-110.92 95.42 -102.94 94.47 -94.62 90.31 C-92 89 -92 89 -88 89 C-88 88.34 -88 87.68 -88 87 C-85 85 -85 85 -82 85 C-81.34 83.68 -80.68 82.36 -80 81 C-79.34 81 -78.68 81 -78 81 C-77.34 79.68 -76.68 78.36 -76 77 C-75.34 77 -74.68 77 -74 77 C-74 76.34 -74 75.68 -74 75 C-73.34 75 -72.68 75 -72 75 C-72 74.34 -72 73.68 -72 73 C-71.34 73 -70.68 73 -70 73 C-70 72.34 -70 71.68 -70 71 C-69.34 71 -68.68 71 -68 71 C-67.91 70.41 -67.83 69.83 -67.74 69.22 C-66.79 66.37 -65.44 65.33 -63.12 63.44 C-59.09 60.1 -59.09 60.1 -57.37 58.29 C-56 57 -56 57 -54 57 C-54 56.34 -54 55.68 -54 55 C-53.34 55 -52.68 55 -52 55 C-51.94 54.44 -51.88 53.89 -51.81 53.31 C-49.83 47.68 -43.27 43.56 -38.89 39.77 C-37 38 -37 38 -36 36 C-34.33 35 -32.67 34 -31 33 C-30.84 32.67 -30.84 32.67 -30 31 C-29.34 31 -28.68 31 -28 31 C-28 30.34 -28 29.68 -28 29 C-27.34 29 -26.68 29 -26 29 C-26 28.34 -26 27.68 -26 27 C-25.34 27 -24.68 27 -24 27 C-24 26.34 -24 25.68 -24 25 C-23.34 25 -22.68 25 -22 25 C-22 24.34 -22 23.68 -22 23 C-21.34 23 -20.68 23 -20 23 C-20 22.34 -20 21.68 -20 21 C-19.34 21 -18.68 21 -18 21 C-18 20.01 -18 19.02 -18 18 C-17.34 18 -16.68 18 -16 18 C-16 17.34 -16 16.68 -16 16 C-15.34 16 -14.68 16 -14 16 C-14 15.34 -14 14.68 -14 14 C-12.68 13.67 -11.36 13.34 -10 13 C-10 12.34 -10 11.68 -10 11 C-9.34 11 -8.68 11 -8 11 C-8 10.34 -8 9.68 -8 9 C-7.34 9 -6.68 9 -6 9 C-6 8.34 -6 7.68 -6 7 C-5.34 7 -4.68 7 -4 7 C-3.67 5.68 -3.34 4.36 -3 3 C-2.01 3 -1.02 3 0 3 C0 2.01 0 1.02 0 0 Z " fill="#B47A59" transform="translate(265,617)"/>
<path d="M0 0 C0.99 0.33 1.98 0.66 3 1 C-25.71 29.71 -54.42 58.42 -84 88 C-84.33 86.68 -84.66 85.36 -85 84 C-84.01 84 -83.02 84 -82 84 C-81.67 82.68 -81.34 81.36 -81 80 C-80.01 80 -79.02 80 -78 80 C-78 79.34 -78 78.68 -78 78 C-77.34 78 -76.68 78 -76 78 C-76 77.34 -76 76.68 -76 76 C-75.34 76 -74.68 76 -74 76 C-73.75 75.2 -73.5 74.39 -73.25 73.56 C-72 71 -72 71 -69.88 70.19 C-69.26 70.13 -68.64 70.06 -68 70 C-68 69.34 -68 68.68 -68 68 C-67.34 68 -66.68 68 -66 68 C-66 67.34 -66 66.68 -66 66 C-65.34 66 -64.68 66 -64 66 C-63.94 65.69 -63.94 65.69 -63.62 64.12 C-63 62 -63 62 -61 60 C-60.01 60 -59.02 60 -58 60 C-58 59.34 -58 58.68 -58 58 C-57.34 58 -56.68 58 -56 58 C-56 57.34 -56 56.68 -56 56 C-55.34 56 -54.68 56 -54 56 C-53.69 55.38 -53.38 54.76 -53.06 54.12 C-52.38 52.75 -51.69 51.38 -51 50 C-50.34 50 -49.68 50 -49 50 C-48.77 49.38 -48.55 48.76 -48.31 48.12 C-46.62 45.39 -45.01 44.95 -42 44 C-42 43.01 -42 42.02 -42 41 C-41.34 40.83 -41.34 40.83 -38 40 C-38 39.34 -38 38.68 -38 38 C-37.34 38 -36.68 38 -36 38 C-35.76 37.26 -35.52 36.51 -35.27 35.75 C-33.83 32.62 -32.32 31.19 -29.69 29 C-26.31 26.12 -23.1 23.18 -20 20 C-19.4 19.42 -18.8 18.84 -18.18 18.25 C-17.54 17.63 -16.91 17.01 -16.25 16.38 C-15.66 15.81 -15.06 15.24 -14.45 14.65 C-13 13 -13 13 -12 10 C-10.68 10 -9.36 10 -8 10 C-7.67 8.68 -7.34 7.36 -7 6 C-6.34 6 -5.68 6 -5 6 C-4.73 5.38 -4.46 4.76 -4.19 4.12 C-3 2 -3 2 0 0 Z " fill="#BA966F" transform="translate(317,390)"/>
<path d="M0 0 C0.66 0 1.32 0 2 0 C2.01 0.59 2.03 1.19 2.04 1.8 C2.41 8.15 4.03 12.96 6.84 18.65 C9.44 23.93 9.84 28.82 8.35 34.46 C5.08 43.53 -0.89 49.18 -8.1 55.29 C-10.45 57.4 -12.37 59.74 -14.38 62.18 C-15.96 63.95 -17.58 65.42 -19.41 66.94 C-25.41 72.13 -30.92 77.81 -36.5 83.44 C-37.62 84.56 -38.74 85.69 -39.86 86.81 C-42.58 89.54 -45.29 92.27 -48 95 C-48.99 94.67 -49.98 94.34 -51 94 C-48.78 91.78 -46.55 89.55 -44.32 87.33 C-43 86.01 -41.69 84.68 -40.39 83.32 C-38.23 81.07 -37.03 80.01 -34 79 C-33.73 78.27 -33.46 77.53 -33.18 76.78 C-31.64 73.14 -29.12 71.07 -26.19 68.56 C-22.97 65.77 -19.95 63.05 -17.28 59.72 C-14.86 56.84 -13.41 56.29 -10 55 C-8.94 53.12 -8.94 53.12 -8 51 C-6 48.75 -6 48.75 -4 47 C-3.34 47 -2.68 47 -2 47 C-2 46.34 -2 45.68 -2 45 C-1.34 45 -0.68 45 0 45 C0.27 44.28 0.54 43.56 0.81 42.81 C2 40 2 40 3.54 37.77 C6.4 32.33 5.69 25.96 5 20 C3.92 17.26 2.62 14.89 1.11 12.36 C-0.78 8.35 -0.41 4.33 0 0 Z " fill="#D9BA8A" transform="translate(483,179)"/>
<path d="M0 0 C5.34 0.63 7.24 2.85 10.54 6.87 C12.42 9.61 13.08 11.67 13 15 C12.67 15.5 12.67 15.5 11 18 C6.65 17.74 4.5 17.43 1.12 14.56 C-2.21 10.54 -2.27 8.21 -2 3 C-1.34 2.01 -0.68 1.02 0 0 Z " fill="#B47A48" transform="translate(553,279)"/>
</svg>
